<svg width="45" height="45" viewBox="0 0 45 45" fill="none" xmlns="http://www.w3.org/2000/svg">
<g filter="url(#filter0_d_0_628)">
<circle cx="22.5" cy="22.5" r="18.5" fill="white"/>
<g clip-path="url(#clip0_0_628)">
<path d="M19.4707 29C18.8901 28.6204 18.8449 28.2347 19.3353 27.7556C21.2514 25.9076 23.1611 24.0596 25.0836 22.2178C25.2772 22.0311 25.2707 21.9378 25.0772 21.7573C23.1611 19.9156 21.2514 18.0676 19.3353 16.2196C18.8707 15.7716 18.8966 15.3796 19.4062 15C19.5998 15 19.7933 15 19.9869 15C20.1095 15.0996 20.2385 15.1929 20.3546 15.3049C22.4449 17.3209 24.5353 19.3307 26.6191 21.3467C27.1288 21.8382 27.1288 22.1431 26.6191 22.6347C24.5546 24.6258 22.4901 26.6169 20.4191 28.6142C20.2643 28.7636 20.1159 28.9067 19.9224 29C19.774 29 19.6191 29 19.4707 29Z" fill="#017950"/>
</g>
</g>
<defs>
<filter id="filter0_d_0_628" x="0" y="0" width="45" height="45" filterUnits="userSpaceOnUse" color-interpolation-filters="sRGB">
<feFlood flood-opacity="0" result="BackgroundImageFix"/>
<feColorMatrix in="SourceAlpha" type="matrix" values="0 0 0 0 0 0 0 0 0 0 0 0 0 0 0 0 0 0 127 0" result="hardAlpha"/>
<feOffset/>
<feGaussianBlur stdDeviation="2"/>
<feComposite in2="hardAlpha" operator="out"/>
<feColorMatrix type="matrix" values="0 0 0 0 0 0 0 0 0 0 0 0 0 0 0 0 0 0 0.1 0"/>
<feBlend mode="normal" in2="BackgroundImageFix" result="effect1_dropShadow_0_628"/>
<feBlend mode="normal" in="SourceGraphic" in2="effect1_dropShadow_0_628" result="shape"/>
</filter>
<clipPath id="clip0_0_628">
<rect width="8" height="14" fill="white" transform="translate(19 15)"/>
</clipPath>
</defs>
</svg>
